<?xml version="1.0" standalone="no"?>
<!DOCTYPE svg PUBLIC "-//W3C//DTD SVG 1.1//EN" "http://www.w3.org/Graphics/SVG/1.1/DTD/svg11.dtd" >
<!--
2013-9-30: Created.
-->
<svg>
<metadata>
Created by iconfont
</metadata>
<defs>

<font id="iconfont" horiz-adv-x="1024" >
  <font-face
    font-family="iconfont"
    font-weight="500"
    font-stretch="normal"
    units-per-em="1024"
    ascent="896"
    descent="-128"
  />
    <missing-glyph />
    
    <glyph glyph-name="x" unicode="x" horiz-adv-x="1001"
d="M281 543q-27 -1 -53 -1h-83q-18 0 -36.5 -6t-32.5 -18.5t-23 -32t-9 -45.5v-76h912v41q0 16 -0.5 30t-0.5 18q0 13 -5 29t-17 29.5t-31.5 22.5t-49.5 9h-133v-97h-438v97zM955 310v-52q0 -23 0.5 -52t0.5 -58t-10.5 -47.5t-26 -30t-33 -16t-31.5 -4.5q-14 -1 -29.5 -0.5
t-29.5 0.5h-32l-45 128h-439l-44 -128h-29h-34q-20 0 -45 1q-25 0 -41 9.5t-25.5 23t-13.5 29.5t-4 30v167h911zM163 247q-12 0 -21 -8.5t-9 -21.5t9 -21.5t21 -8.5q13 0 22 8.5t9 21.5t-9 21.5t-22 8.5zM316 123q-8 -26 -14 -48q-5 -19 -10.5 -37t-7.5 -25t-3 -15t1 -14.5
t9.5 -10.5t21.5 -4h37h67h81h80h64h36q23 0 34 12t2 38q-5 13 -9.5 30.5t-9.5 34.5q-5 19 -11 39h-368zM336 498v228q0 11 2.5 23t10 21.5t20.5 15.5t34 6h188q31 0 51.5 -14.5t20.5 -52.5v-227h-327z" />
    

    
    <glyph glyph-name="shouqi" unicode="&#58894;" d="M299.518946 313.83598700000005l0 94.366228 660.620997 0 0-94.366228L299.518946 313.83598700000005 299.518946 313.83598700000005zM299.518946 125.09022900000002l0 94.372368 660.620997 0 0-94.372368L299.518946 125.09022900000002 299.518946 125.09022900000002zM299.518946-63.65143599999999l0 94.375437 660.620997 0 0-94.375437L299.518946-63.65143599999999 299.518946-63.65143599999999zM299.518946 502.577652l0 94.366228 660.620997 0 0-94.366228L299.518946 502.577652 299.518946 502.577652zM63.563286 266.65645500000005l141.574215 188.764178 0-377.525286L63.563286 266.65645500000005 63.563286 266.65645500000005z"  horiz-adv-x="1024" />

    
    <glyph glyph-name="youqi" unicode="&#58893;" d="M398.875035-60.23563999999999l166.048827 0L564.923862 271.86406 398.875035 271.86406 398.875035-60.23563999999999zM454.225667 50.464601000000016l55.350632 0 0-55.350632-55.350632 0L454.225667 50.464601000000016zM896.915092 719.363024l-53.513798 0L843.401294 830.062242 68.505745 830.062242l0-276.749068 774.896572 0 0 110.701265 53.513798 0 0-166.04985L509.576299 497.964588l-55.350632 0-0.107447 0 0-55.350632 0.107447 0 0-110.699218 55.350632 0L509.576299 442.613956l387.339816 0 55.350632 0 0 55.350632L952.266747 664.014438l0 55.348586L896.915092 719.363024zM123.856377 778.117173L788.051685 778.117173l0-55.348586L123.856377 722.768587 123.856377 778.117173z"  horiz-adv-x="1024" />

    
    <glyph glyph-name="designer" unicode="&#58898;" d="M120.837624 90.36126300000001l23.812335 0 0-42.813085-23.812335 0L120.837624 90.36126300000001 120.837624 90.36126300000001zM382.545114 90.93329100000005l23.814382 0 0-73.073272-23.814382 0L382.545114 90.93329100000005 382.545114 90.93329100000005zM225.490126 92.14795600000002l23.814382 0 0-73.714885-23.814382 0L225.490126 92.14795600000002 225.490126 92.14795600000002zM173.140851 90.36126300000001l23.860431 0 0-42.813085-23.860431 0L173.140851 90.36126300000001 173.140851 90.36126300000001zM277.844517 89.14659900000004l23.812335 0 0-42.814108-23.812335 0L277.844517 89.14659900000004 277.844517 89.14659900000004zM330.193793 89.14659900000004l23.812335 0 0-42.814108-23.812335 0L330.193793 89.14659900000004 330.193793 89.14659900000004zM434.847318 89.14659900000004l23.815405 0 0-42.814108L434.847318 46.332491000000005 434.847318 89.14659900000004 434.847318 89.14659900000004zM487.199663 89.14659900000004l23.811312 0 0-42.814108L487.199663 46.332491000000005 487.199663 89.14659900000004 487.199663 89.14659900000004zM539.547915 92.14795600000002l23.814382 0 0-73.142857-23.814382 0L539.547915 92.14795600000002 539.547915 92.14795600000002zM591.902306 89.97138299999995l23.812335 0 0-42.813085-23.812335 0L591.902306 89.97138299999995 591.902306 89.97138299999995zM644.251581 90.36126300000001l23.814382 0 0-42.813085-23.814382 0L644.251581 90.36126300000001 644.251581 90.36126300000001zM696.602903 91.55239099999994l23.814382 0 0-72.157413-23.814382 0L696.602903 91.55239099999994 696.602903 91.55239099999994zM748.90613 90.54341199999999l23.815405 0 0-42.813085-23.815405 0L748.90613 90.54341199999999 748.90613 90.54341199999999zM801.258475 90.54341199999999l23.812335 0 0-42.813085-23.812335 0L801.258475 90.54341199999999 801.258475 90.54341199999999zM853.609797 90.24562900000001l23.814382 0 0-71.5158-23.814382 0L853.609797 90.24562900000001 853.609797 90.24562900000001zM927.316495 138.55796199999997L83.382571 138.55796199999997c-11.474332 0-20.826328-9.689686-20.826328-21.600971l0-152.860457c0-11.888771 9.351995-21.647019 20.826328-21.647019l843.933925 0c11.470239 0 20.822235 9.758248 20.822235 21.647019L948.13873 116.95699100000002C948.13873 128.86929899999996 938.786735 138.55796199999997 927.316495 138.55796199999997L927.316495 138.55796199999997zM908.852982 97.78330300000005l0-114.536616L101.841991-16.75331300000005 101.841991 97.78330300000005 908.852982 97.78330300000005 908.852982 97.78330300000005zM531.30723 454.26532c-23.863501 0-46.324048-9.30083-63.198368-26.182312-20.679995-20.686135-22.463618-33.833573-26.801413-65.60723-2.989077-21.738094-7.0383-51.540863-18.993586-99.43978l-2.410909-9.598612 9.641591 2.405793c47.867194 11.958356 77.612659 16.057721 99.350752 18.99154 31.766494 4.351098 44.926212 6.116301 65.658396 26.800389 34.850739 34.864042 34.850739 91.606371 0 126.4479C577.632301 444.965513 555.216779 454.26532 531.30723 454.26532L531.30723 454.26532zM517.568321 306.12435200000004c-13.737886-1.534959-30.465872-3.436262-52.497655-7.514137 4.100388 22.014386 5.979178 38.758746 7.474228 52.480258 3.035126 27.145244 4.435009 39.492456 18.752086 53.854559 10.700713 10.651594 24.920576 16.538675 40.010249 16.538675 15.135722 0 29.355585-5.887081 40.058344-16.538675 22.076808-22.128997 22.076808-58.046021 0-80.129992C557.048497 310.49898599999995 544.659329 309.102173 517.568321 306.12435200000004L517.568321 306.12435200000004zM941.775812 714.032622l-61.317531 61.277622c-8.435113 8.475022-22.174022 8.475022-30.609135 0L558.735929 484.181677c-4.7727-4.764514-6.553253-11.178597-5.975085-17.385972 19.039635-4.444219 37.114293-13.745049 51.91437-28.54308 14.799054-14.798031 24.15105-32.91669 28.587082-51.90823 6.218632-0.641613 12.626575 1.14508 17.403369 5.910617l291.110147 291.128567C950.260044 691.8586 950.260044 705.5576 941.775812 714.032622L941.775812 714.032622zM635.334491 438.252625l-30.659277 30.604018 199.183482 199.201901 30.659277-30.627555L635.334491 438.252625 635.334491 438.252625zM849.849146 652.756023l-30.661324 30.627555 45.988404 45.974078 30.613228-30.650067L849.849146 652.756023 849.849146 652.756023zM405.297304 218.25100199999997L143.058718 218.25100199999997l121.236202 121.272018c8.149611 8.109702 8.149611 21.349237 0 29.458939-3.90289 3.963265-9.156544 6.116301-14.700817 6.116301-5.592368 0-10.797927-2.153036-14.753005-6.116301L113.55987 247.688451 113.55987 810.151773c0 11.476379-9.351995 20.823258-20.825304 20.823258-11.519358 0-20.871353-9.346879-20.871353-20.823258l0-612.790544c0-8.337899 5.589298-20.824281 20.871353-20.824281l312.562738 0c11.474332 0 20.826328 9.369392 20.826328 20.824281C426.122609 208.88365699999997 416.771637 218.25100199999997 405.297304 218.25100199999997L405.297304 218.25100199999997zM405.297304 218.25100199999997"  horiz-adv-x="1024" />

    
    <glyph glyph-name="tongji" unicode="&#58910;" d="M544.87651597 458.45500234c0 0 3.16829827 398.33751703 0 398.33751703 227.68344041 0 395.77683748-169.17843116 395.77683748-398.33751703C940.65335474 457.15296222 544.87651597 458.45500234 544.87651597 458.45500234L544.87651597 458.45500234zM907.71173646 376.68687366999995c0-238.3167687-191.96413651-431.53954336-428.76185778-431.53954334-236.79772255 0-428.71845707 193.22277466-428.71845707 431.53954334 0 238.3167687 191.96413651 431.53954336 428.71845707 431.53954336 11.15414435 0 22.04788196-0.82462605 32.98502029-1.64925081l0-381.3241915 393.21615923 0C906.75690703 409.97570268 907.71173646 392.39815911 907.71173646 376.68687366999995L907.71173646 376.68687366999995zM872.64345198 389.96768421L478.94987739 389.96768421 478.94987739 775.02439072c-218.56915826 0-395.77683748-178.33611399-395.77683748-398.33751705s177.20767922-398.33751703 395.77683748-398.33751702c218.56915826 0 395.77683748 178.33611399 395.77683749 398.33751702C874.72671618 419.52399819 872.64345198 389.96768421 872.64345198 389.96768421L872.64345198 389.96768421z"  horiz-adv-x="1024" />

    
    <glyph glyph-name="anzhuang" unicode="&#58895;" d="M929.972998 419.007305c-37.516452 24.756847-87.75874-3.039219-97.141434-8.803503 0 0-147.696854-87.388303-182.227298-106.282628-18.382673-10.101055-46.472428 0.064468-55.276954 8.281617-45.198411 52.748365-78.867232 102.882182-99.92892 149.08241-23.961738 52.334949 4.553713 76.087932 8.978489 79.346139 1.579985 1.035586 161.591305 97.021707 204.610074 119.184473 30.769794 15.832594 52.496631 31.249725 58.31515 54.949496 3.606131 14.808264 0.042979 30.029944-10.645454 45.110407-26.445302 37.700647-232.743832 112.437815-422.970314 1.27504C117.527229 635.15618 124.784516 427.364647 127.169843 359.08863399999996l0.337691-13.380752c0-34.856879-24.37413-66.445318-24.37413-66.445318l-30.172183-31.088042c-11.95324-12.202926-11.571546-31.641651 0.729617-43.464931 12.345166-11.811 32.111349-11.538801 43.934628 0.740874l32.296567 33.114189c4.043083 4.957919 39.727817 50.176796 39.727817 107.142206l-0.370437 15.516392c-2.298346 65.497737-8.422833 239.510956 175.963641 346.947873 152.373363 88.880283 302.295907 35.837206 335.715041 18.120706-4.186346-2.898003-10.66899-6.821359-20.682042-12.018731-44.838208-23.013133-201.505363-117.113301-209.284537-121.79902-27.600615-18.185174-69.822229-74.30124-32.263821-156.535149 23.535019-51.3976 60.256362-106.35733 112.437815-167.246095 17.532305-20.714787 79.291904-46.016033 129.556705-18.557658 34.878368 19.146059 184.027293 107.361193 184.027293 107.361193 9.631358 5.764284 27.707039 11.277858 29.843702 11.20111 0 0 4.839215-7.888667 0.588401-35.543517-8.16189-53.413514-52.836369-230.629681-283.029098-269.975804-73.01699-12.476149-131.12748-5.02341-178.034812 0.860601-52.540633 6.712889-97.989755 12.476149-133.598764-17.182334-42.582841-35.446303-51.485605-42.85504-46.364981-63.122643 3.50994-13.94664 16.191774-23.274076 30.160927-23.274076 2.473331 0 5.02341 0.281409 7.518231 0.893346 7.160073 1.786693 13.053294 5.840008 17.184381 11.200086 2.963495 3.03001 10.829649 10.089799 31.544437 27.305903 13.95892 11.595083 40.34794 9.002025 85.655845 3.226484 48.367591-6.145977 114.441449-14.470573 196.49014-0.50142 215.44177 36.839023 313.75796 190.116989 333.883323 321.264934C963.828061 370.66017999999997 954.893574 402.651802 929.972998 419.007305L929.972998 419.007305zM929.972998 419.007305"  horiz-adv-x="1024" />

    
    <glyph glyph-name="tupianguanli" unicode="&#58891;" d="M735.585753 606.4544880000001c0 0 90.462315 0.900509 90.462315-88.666412 0 0 8.372691-86.703711-90.462315-88.611154 0 0-88.554872-1.911536-87.658456 88.611154C647.927297 517.844358 646.970506 598.081797 735.585753 606.4544880000001L735.585753 606.4544880000001zM913.758712 742.659613c0 0 47.593971-3.708462 47.593971-45.682435l0-625.838721c0 0-2.807952-44.788066-47.593971-45.743834L913.758712 742.659613 913.758712 742.659613zM64.904731 71.07603400000005c0 0 1.911536-45.736671 45.736671-45.736671l803.11731 0L913.758712 157.77974500000005l-87.542822 0L647.927297 338.76577299999997 513.579473 203.574744 330.792427 429.232181l-180.030259-269.598204-40.063461-0.898463-1.01205 538.182312L64.904731 696.917826 64.904731 71.07603400000005 64.904731 71.07603400000005zM913.758712 742.659613L110.641401 742.659613c0 0-45.736671 0.951675-45.736671-45.682435l848.853981 0L913.758712 742.659613 913.758712 742.659613zM913.758712 742.659613"  horiz-adv-x="1024" />

    
    <glyph glyph-name="lishijilu-copy-copy" unicode="&#58914;" d="M511.215 833.934c-247.841 0-448.76-200.919-448.76-448.766 0-247.841 200.919-448.76 448.76-448.76 247.847 0 448.766 200.919 448.766 448.76 0 247.847-200.919 448.766-448.766 448.766zM734.022 162.368c-5.145-5.145-11.888-7.718-18.625-7.718-6.743 0-13.486 2.573-18.63 7.718l-211.887 211.893v267.967c0 14.558 11.803 26.348 26.342 26.348 14.545 0 26.348-11.791 26.348-26.348v-246.152l196.452-196.452c10.289-10.278 10.289-26.971 0-37.256z"  horiz-adv-x="1024" />

    
    <glyph glyph-name="jiantouarrow496" unicode="&#59060;" d="M219.32032 424.42752l0 349.15328L338.81088 773.5808 338.81088 424.42752c0-54.5792 14.2336-95.05792 43.50976-123.77088 41.6768-40.88832 103.03488-47.23712 121.7024-48.16896l85.85216 0-49.21344 124.60032c-1.65888 4.17792-0.31744 8.93952 3.25632 11.64288 3.584 2.71360001 8.54016 2.69312 12.10368-0.0512L800.77824 200.49919999999997c2.44736-1.90464 3.90144-4.80256 3.90144-7.91552 0-3.10272-1.45408-6.02112-3.90144-7.90528l-244.75648-188.18048c-1.80224-1.3824-3.93216-2.05824-6.0928-2.05824-2.10944 0-4.21888 0.65536-6.01088 2.00704-3.584 2.69312-4.9152 7.46496-3.25632 11.65312l49.21344 124.59008-63.34464 0.18432c0 0-6.07232 0.33792-14.4896 1.05472l0.03071999-1.06496c-5.36576-0.11264-127.85664-1.45408-213.43231999 82.49344C245.99552 266.97727999999995 219.32032 337.31584 219.32032 424.42752z"  horiz-adv-x="1024" />

    
    <glyph glyph-name="crm11" unicode="&#58946;" d="M899.47259317 321.49507823L124.52650684 321.49507823c-34.37829141 0-62.5058209 28.1275295-62.5058209 62.50492177l0 0c0 34.37829141 28.1275295 62.50492177 62.50582089 62.50492177l774.94608633 0c34.37829141 0 62.50492177-28.1275295 62.50492178-62.50492177l0 0C961.97841494 349.62170859 933.85088545 321.49507823 899.47259317 321.49507823zM449.4941791-3.472593169999982L449.4941791 771.47349316c0 34.37829141 28.1275295 62.5058209 62.50492178 62.5058209l0 0c34.37829141 0 62.50492177-28.1275295 62.50492178-62.50582089l0-774.94608633c0-34.37829141-28.1275295-62.50492177-62.50492178-62.50492178l0 0C477.62170859-65.97841494 449.4941791-37.850885449999964 449.4941791-3.472593169999982z"  horiz-adv-x="1024" />

    
    <glyph glyph-name="pinglunguanli" unicode="&#58939;" d="M861.09090875 64.00000031000002L599.27272719 64.00000031000002 412.27636344-76.10181843999999C407.33090938-79.76727281000001 401.48363656-81.57090936999998 395.63636375-81.57090936999998 391.04-81.57090936999998 386.44363625-80.43636375000006 382.22545437-78.19636405999995 372.59636375-73.04727280999998 366.69090875-62.89454531000001 366.98181781-51.92727280999998L369.774545 55.592727190000005 311.15636375 63.76727249999999C258.79272687 63.76727249999999 221.41090906 109.58545500000002 221.41090906 165.96363656000005L221.41090906 545.22181781C221.41090906 600.69818156 258.79272687 645.90545437 311.15636375 645.90545437L861.09090875 645.81818156C915.81090875 645.81818156 977.39636375 588.24727312 977.39636375 533.1490912500001L977.39636375 157.06181813C977.39636375 101.14909124999997 915.81090875 64.00000031000002 861.09090875 64.00000031000002ZM920.17454563 533.1490912500001C920.17454563 556.3927275 884.625455 587.63636344 861.09090875 587.63636344L311.15636375 587.08363594C288.61090906 587.08363594 276.21818187 568.6690912500001 276.21818187 545.22181781L276.21818187 165.87636375C276.21818187 142.02181781000002 289.39636344 121.94909061999999 311.15636375 121.94909061999999L399.18545469 113.30909063000001C406.89454531 113.30909063000001 414.28363625 110.16727313000001 419.694545 104.58181780999996 425.10545469 98.96727281000005 428.0727275 91.43272688000002 427.83999969 83.66545499999995L425.77454563 4.596363750000023 568.66909062 107.92727249999996C573.46909062 111.50545499999998 593.28000031 122.18181844000003 599.27272719 122.18181844000003L861.09090875 122.18181844000003C883.89818187 122.18181844000003 920.17454563 133.32363655999995 920.17454563 156.97454531000005L920.17454563 533.1490912500001ZM773.81818156 296.72727281000004C741.67272687 296.72727281000004 715.63636344 322.76363625 715.63636344 354.90909094000006 715.63636344 387.05454563 741.67272687 413.09090906 773.81818156 413.09090906 805.93454562 413.09090906 831.99999969 387.05454563 831.99999969 354.90909094000006 831.99999969 322.76363625 805.93454562 296.72727281000004 773.81818156 296.72727281000004ZM599.27272719 296.72727281000004C567.1272725 296.72727281000004 541.09090906 322.76363625 541.09090906 354.90909094000006 541.09090906 387.05454563 567.1272725 413.09090906 599.27272719 413.09090906 631.41818188 413.09090906 657.45454531 387.05454563 657.45454531 354.90909094000006 657.45454531 322.76363625 631.41818188 296.72727281000004 599.27272719 296.72727281000004ZM424.72727281 296.72727281000004C392.58181812 296.72727281000004 366.54545469 322.76363625 366.54545469 354.90909094000006 366.54545469 387.05454563 392.58181812 413.09090906 424.72727281 413.09090906 456.8727275 413.09090906 482.90909094 387.05454563 482.90909094 354.90909094000006 482.90909094 322.76363625 456.8727275 296.72727281000004 424.72727281 296.72727281000004ZM791.24363656 705.3672731199999C775.38909125 705.3672731199999 762.58909062 718.28363625 762.58909062 734.254545L762.58909062 750.98181844C762.58909062 773.96363625 738.67636344 792.02909062 715.14181813 792.02909062L140.39272719 792.02909062C116.91636406 792.02909062 103.88363656 773.96363625 103.88363656 750.98181844L103.88363656 373.585455C103.88363656 362.53090875 105.27999969 353.42545500000006 113.80363625 345.80363624999995 125.64363594 335.18545500000005 125.43999969 316.97454561999996 114.90909125 305.01818156 109.29454531 298.61818218999997 100.04363656 295.33090875000005 92.10181813 295.33090875000005 85.38181812 295.33090875000005 81.3672725 297.71636344 75.89818156 302.57454562 54.95272719 321.25090875 46.57454562 345.80363624999995 46.57454562 373.585455L46.57454562 750.98181844C46.57454562 805.41090938 85.67272719 849.745455 140.39272719 849.745455L715.20000031 849.745455C769.92000031 849.745455 819.89818156 805.46909062 819.89818156 750.98181844L819.89818156 734.254545C819.89818156 718.28363625 807.09818187 705.3672731199999 791.24363656 705.3672731199999Z"  horiz-adv-x="1024" />

    
    <glyph glyph-name="nimu-copy" unicode="&#58890;" d="M919.055 691.8028125l-1.730625-1.779375-88.16625-89.7084375c-49.550625-50.4421875-144.5278125-113.266875-156.75375-112.445625h-8.325l-7.805625 7.899375-2.593125 2.345625-34.0003125 34.306875-2.285625 2.953125-7.805625 23.8790625 0.8728125 1.4634375c0.8746875 1.171875 59.214375 100.41375 109.055625 150.87l87.8915625 88.843125c3.1734375 2.6446875 2.29875 2.353125 2.29875 2.353125 0.58125 0.290625 20.8865625 4.6771875 29.5378125 4.6771875 14.109375 0 32.544375-10.843125 52.4503125-30.781875l1.134375-1.171875c19.89-20.5190625 30.8409375-55.5553125 30.8409375-69.924375 0.001875-7.9246875-3.4509375-12.3215625-4.6153125-13.779375v0zM913.503125 796.4053125l-0.7509375 0.7565625c-27.898125 28.1803125-55.2553125 42.256875-81.6328125 42.256875-27.63375 0-43.8609375-15.3496875-47.40375-19.2009375l-0.9965625-1.280625-77.5996875-78.384375c-47.1290625-47.3878125-113.5509375-148.820625-116.3409375-152.923125-19.0171875-28.164375-7.0996875-53.7759375 6.3178125-65.0559375l3.82125-3.8353125 2.038125-2.3165625 28.6340625-29.2003125-120.4040625-121.6696875c-4.5703125-4.8703125-7.36125-11.00625-7.36125-17.675625 0-6.661875 2.7890625-13.0678125 7.36125-17.668125l145.2328125-147.035625-446.1609375-231.9965625c-29.6596875-10.2534375-52.48125 12.3928125-78.82875 38.5153125-25.8571875 26.6390625-48.155625 65.67-38.004375 95.638125l213.6628125 483.0309375 144.253125-145.8403125-91.51125-92.5621875c-25.87125-25.880625-24.860625-56.176875 0.49125-81.789375 4.8-5.1140625 25.074375-15.9796875 31.4090625-15.9796875s10.873125-4.861875 15.705 0c9.63 9.729375-19.3228125 35.2096875-31.4090625 47.9390625-5.96625 6.2784375-3.5128125 24.054375 2.836875 30.4640625l183.26625 186.2053125-19.261875 19.36125-72.999375-73.76625-153.14625 154.963125c-5.8265625 5.904375 1.779375 8.2059375-6.350625 6.92625-8.0971875-1.53375-14.690625-6.92625-17.9728125-14.3390625l-212.95875-485.4028125-0.523125-1.78875c-16.96125-48.1546875-6.075-91.4465625 32.9728125-131.6596875l0.7659375-0.7565625 0.24375-0.5128125c27.63375-27.405 60.0871875-41.248125 74.6709375-41.248125 38.2790625 0 41.1778125 2.5453125 55.6265625 7.936875l1.779375 0.526875 398.019375 215.2509375c7.3434375 3.328125 44.1665625 23.9709375 47.1103125 31.9621875-6.87 8.986875-14.61375 18.7546875-20.4440625 24.6515625l-137.686875 138.9778125 126.721875 124.00875 19.27875-12.0703125c10.12125 0 20.026875 3.3290625 29.413125 9.73125 4.29375 2.81625 104.4384375 69.9253125 151.584375 117.583125l77.570625 78.369375 0.523125 0.2596875c4.5553125 4.3546875 19.261875 20.7496875 19.7503125 47.6409375 0.2746875 26.6390625-13.4203125 54.8184375-41.3165625 82.9978125v0zM913.503125 796.4053125z"  horiz-adv-x="1024" />

    
    <glyph glyph-name="zixunzhuanhuan" unicode="&#58922;" d="M958.00625 46.5c-12.54375-48.459375-56.165625-84.375-108.534375-84.375-9.759375 0-19.06875 1.63125-28.125 3.99375L821.346875-37.875 118.25-37.875c-31.05 0-56.25 25.2-56.25 56.25L62 749.625c0 31.05 25.2 56.25 56.25 56.25l618.75 0c31.05 0 56.25-25.2 56.25-56.25l0-225 126.5625 0c23.315625 0 42.1875-18.871875 42.1875-42.1875L962 46.5 958.00625 46.5zM737 482.4375L737 693.375c0 31.05-25.2 56.25-56.25 56.25L174.5 749.625C143.421875 749.625 118.25 724.425 118.25 693.375l0-618.75c0-31.05 25.2-56.25 56.25-56.25l578.109375 0 0 0L737 18.375l0 56.25L737 482.4375zM905.75 143.390625L905.75 243.375l0 210.9375c0 7.7625-6.3 14.0625-14.0625 14.0625l-84.375 0c-7.7625 0-14.0625-6.3-14.0625-14.0625L793.25 243.375l0-99.984375L793.25 74.625c0-31.05 25.2-56.25 56.25-56.25s56.25 25.2 56.25 56.25L905.75 143.390625zM610.4375 271.5l-365.625 0C237.05 271.5 230.75 277.79999999999995 230.75 285.5625l0 28.125C230.75 321.45000000000005 237.05 327.75 244.8125 327.75l365.625 0c7.7625 0 14.0625-6.3 14.0625-14.0625l0-28.125C624.5 277.79999999999995 618.171875 271.5 610.4375 271.5zM610.4375 552.75l-196.875 0C405.771875 552.75 399.5 559.05 399.5 566.8125l0 28.125C399.5 602.7 405.771875 609 413.5625 609l196.875 0C618.171875 609 624.5 602.7 624.5 594.9375l0-28.125C624.5 559.05 618.171875 552.75 610.4375 552.75zM301.0625 552.75l-28.125 0C249.621875 552.75 230.75 571.65 230.75 594.9375l0 28.125C230.75 646.378125 249.621875 665.25 272.9375 665.25l28.125 0C324.35 665.25 343.25 646.378125 343.25 623.0625l0-28.125C343.25 571.65 324.35 552.75 301.0625 552.75zM244.8125 468.375l309.375 0c7.7625 0 14.0625-6.3 14.0625-14.0625l0-28.125c0-7.7625-6.3-14.0625-14.0625-14.0625l-309.375 0C237.05 412.125 230.75 418.425 230.75 426.1875l0 28.125C230.75 462.075 237.05 468.375 244.8125 468.375zM244.8125 187.125l309.375 0c7.7625 0 14.0625-6.3 14.0625-14.0625l0-28.125c0-7.7625-6.3-14.0625-14.0625-14.0625l-309.375 0C237.05 130.875 230.75 137.17499999999995 230.75 144.9375l0 28.125C230.75 180.82500000000005 237.05 187.125 244.8125 187.125z"  horiz-adv-x="1024" />

    
    <glyph glyph-name="jungongyanshou" unicode="&#58936;" d="M511.60369062-66l-19.30463174 8.47629932C267.61762198 40.66103642999997 122.42254239 262.73895877999996 122.42254239 508.23279815L122.42254239 683.94143291l17.65091162 14.62751104c103.89360937 87.08359131 235.97343984 135.07628643 371.83448583 135.07628642 135.64548984 0 267.70960283-47.99943106 371.86592081-135.15712031l17.56334179-14.54443154 0-175.71200274c0-245.46801797-145.11536894-467.54481709-369.69688652-565.76660273l-0.1942251-0.08307862L511.60369062-66zM156.10320283 668.11040039l0-159.87872461c0-232.10577685 137.2700206-442.06876582 349.70966016-534.90613711l6.04792354-2.65515908 6.38585331 2.69782119c212.25439599 92.88452373 349.40990214 302.82169043 349.40990215 534.863475L867.656542 668.10703242l-5.43044532 4.49749073C764.05370908 754.75389786 639.66541924 799.96569316 511.90793984 799.96569316c-127.96293164 0-252.3579583-45.19832256-350.27100439-127.26798662L156.10320283 668.11040039zM508.48486192 256.67307216999995l-164.45255801 184.08726035c-6.19611856 6.93597041-5.59548018 17.58130488 1.33936787 23.7785458 6.93484805 6.19611856 17.58018164 5.59660342 23.7785458-1.33936787l140.08010976-156.80480274L735.94944424 545.34551719c6.40269317 6.74623652 17.06149951 7.02803145 23.80773603 0.62646064 6.74735888-6.4015708 7.0269082-17.06037714 0.62646065-23.80773603L508.48486192 256.67307216999995z"  horiz-adv-x="1024" />

    
    <glyph glyph-name="customerService" unicode="&#58938;" d="M804.278251 529.689127C772.191462 663.890618 654.800845 767.254777 511.889995 767.254777c-146.853649 0-267.617084-100.472296-292.387233-237.564627-37.155225-7.102768-54.822606-26.340925-54.822606-54.82363l0-127.919415c0-31.94455 23.806195-54.822606 54.822606-54.822606 17.489326 0 44.543496 5.336542 54.822606 18.274202 24.841781-66.957994 110.144586-149.298328 129.079844-151.60179 9.44-1.14201 14.971993-1.659803 8.636704 6.139837-9.369392 11.510148-68.296479 68.992327-79.860862 149.601226-5.104251 35.479049 20.986987 70.313416 51.324946 76.060303 48.755424 9.244548 97.224322 19.791765 145.978722 28.874631 30.980595 5.746888 52.146661 23.074531 65.10274 51.931766 3.034103 6.745634 6.674003 20.344351 8.673543 40.011272 1.784646 9.779737 11.100826 3.158946 11.491729 2.641153 0 0 69.563332-23.735587 79.879282-148.835793 6.282077-75.879178-62.247716-177.280636-69.956282-189.113125 0.483001 0.731664 0.090051-10.243295 6.567579-6.638187 57.625442 32.354895 101.830223 86.408999 122.263601 151.422711 8.262174-12.528338 21.218254-21.556968 36.245506-24.698518C765.642303 184.35193700000002 667.792741 114.360863 546.548352 103.72461899999996c-7.263427 18.381649-25.14468 31.426757-46.150086 31.426757-27.447119 0-49.682539-22.164812-49.682539-49.442062 0-27.304879 22.23542-49.433876 49.682539-49.433876 22.110577 0 40.635489 14.491039 47.078225 34.407648 140.321886 11.599176 252.823146 96.661504 276.308023 228.77545 20.754696 8.834202 35.31839 23.269983 35.31839 47.487547L859.102904 474.86652C859.101881 521.873114 804.492122 528.832619 804.278251 529.689127zM731.182466 493.140723c-36.602639 101.079116-107.71935 164.467819-219.292472 164.467819-111.10854 0-200.623273-64.048735-237.564627-164.467819-1.837858 2.284019-16.168238 16.275685-18.274202 18.274202 20.914332 122.370025 131.274836 201.016223 255.838829 201.016223 123.95922 0 215.971843-79.503728 237.56565-201.016223C741.765499 500.886127 731.182466 493.140723 731.182466 493.140723z"  horiz-adv-x="1024" />

    
    <glyph glyph-name="biaoqing" unicode="&#58948;" d="M514.81667129-66C393.85000479-66 280.1166708-19.200000000000045 194.60000411 65.73333309999998 109.0666707 150.76666640999997 61.98333769 263.76666651000005 62.0000044 384 62.0000044 504.2166668 109.1166708 617.23333359 194.6666709 702.23333349 280.1833376 787.2 393.9166707 834 514.90000479 834 635.91667138 834 749.63333779 787.2 835.18333789 702.23333349 1011.7666707 526.73333349 1011.75000401 241.24999980999996 835.18333789 65.81666660999997 749.61667109-19.166666609999993 635.83333789-66 514.81667129-66 514.81667129-66 514.81667129-66 514.81667129-66 514.81667129-66 514.81667129-66 514.81667129-66 514.81667129-66 514.81667129-66 514.81667129-66ZM514.90000479 775.34999971C409.6666707 775.34999971 310.7833376 734.6666669 236.38333818 660.7666667 161.98333789 586.8833331999999 121.01667119 488.566667 121.01667119 384 121.00000449 279.41666631 161.95000449 181.11666679999996 236.31667138 107.19999989999997 310.70000411 33.333333100000004 409.61667148-7.399999800000046 514.81667129-7.399999800000046 620.06667119-7.399999800000046 719.03333779 33.36666650999996 793.45000479 107.28333339000005 947.00000411 259.8500001 947.00000411 508.1499999 793.45000479 660.7666667 719.0500045 734.6666669 620.13333799 775.34999971 514.90000479 775.34999971 514.90000479 775.34999971 514.90000479 775.34999971 514.90000479 775.34999971 514.90000479 775.34999971 514.90000479 775.34999971 514.90000479 775.34999971 514.90000479 775.34999971 514.90000479 775.34999971 514.90000479 775.34999971ZM353.9500042 261.18333339000003C353.9500042 261.18333339000003 407.0166708 176.89999980000005 514.80000459 176.89999980000005 622.5833375 176.89999980000005 693.26667089 261.18333339000003 693.26667089 261.18333339000003 693.26667089 261.18333339000003 733.3333376 261.31666700000005 733.3166709 219.05000039000004 733.3166709 219.05000039000004 663.85000479 120.71666660999995 514.80000459 120.71666660999995 365.7500044 120.71666660999995 317.23333789 219.05000039000004 317.23333789 219.05000039000004 317.23333789 219.05000039000004 315.76667099 261.18333339000003 353.9500042 261.18333339000003 353.9500042 261.18333339000003 353.9500042 261.18333339000003 353.9500042 261.18333339000003 353.9500042 261.18333339000003 353.9500042 261.18333339000003 353.9500042 261.18333339000003ZM383.2000042 528.6999996100001C352.66667099 528.6999996100001 327.73333818 504.01666641 327.73333818 473.5833334 327.73333818 443.18333291 352.6500043 418.49999971 383.2000042 418.49999971 413.8833377 418.49999971 438.66667109 443.18333291 438.66667109 473.5833334 438.66667109 504.01666641 413.8833377 528.6999996100001 383.2000042 528.6999996100001 383.2000042 528.6999996100001 383.2000042 528.6999996100001 383.2000042 528.6999996100001 383.2000042 528.6999996100001 383.2000042 528.6999996100001 383.2000042 528.6999996100001 383.2000042 528.6999996100001 383.2000042 528.6999996100001 383.2000042 528.6999996100001ZM667.38333799 528.6999996100001C636.80000469 528.6999996100001 611.95000449 504.01666641 611.95000449 473.5833334 611.95000449 443.18333291 636.80000469 418.49999971 667.38333799 418.49999971 698.03333809 418.49999971 722.85000401 443.18333291 722.85000401 473.5833334 722.85000401 504.01666641 698.03333809 528.6999996100001 667.38333799 528.6999996100001 667.38333799 528.6999996100001 667.38333799 528.6999996100001 667.38333799 528.6999996100001 667.38333799 528.6999996100001 667.38333799 528.6999996100001 667.38333799 528.6999996100001 667.38333799 528.6999996100001 667.38333799 528.6999996100001 667.38333799 528.6999996100001Z"  horiz-adv-x="1044" />

    
    <glyph glyph-name="yonghuming" unicode="&#58892;" d="M598.125543-63.33011799999997L425.369967-63.33011799999997c-163.868161 0-293.288766 0-293.288766 84.180238l0 16.83134c0 157.750837 135.426389 295.164486 297.132304 295.164486l165.073616 0c161.702845 0 297.128211-137.41365 297.128211-295.164486l0-16.83134C891.387703-63.33011799999997 755.470127-63.33011799999997 598.125543-63.33011799999997L598.125543-63.33011799999997zM429.212482 266.81711399999995c-133.478014 0.019443-233.93496-97.15883-234.596016-227.187279l3.492544-3.91517c0-33.688263 128.830157-33.014928 231.102449-33.014928l165.073616 0c84.663238 0 231.099379-0.673335 231.099379 33.014928l0 0c0 129.918955-97.501638 231.102449-231.099379 231.102449L429.212482 266.81711399999995 429.212482 266.81711399999995zM495.238244 365.86087399999997c-127.455857 0-231.099379 103.682407-231.099379 231.115752 0 127.443577 103.642498 231.089146 231.099379 231.089146 127.45995 0 231.105518-103.646592 231.105518-231.089146C726.344786 469.543282 622.665449 365.86087399999997 495.238244 365.86087399999997L495.238244 365.86087399999997zM330.168722 596.976626c0-91.004667 74.045413-165.086919 165.069523-165.086919 91.028203 0 165.076686 74.048483 165.076686 165.086919S586.266447 762.036939 495.238244 762.036939C404.214135 762.036939 330.168722 687.984363 330.168722 596.976626L330.168722 596.976626zM330.168722 596.976626"  horiz-adv-x="1024" />

    
    <glyph glyph-name="ai214" unicode="&#59082;" d="M524.31471078 167.72592433l-68.09595776-68.09595775 317.8568711 0.02894329-0.03400901 317.7939188-68.10608776-68.10608777 0.03328493-181.58246734L524.31471078 167.72592433zM410.85786857 326.67461990000004l-90.84116107-90.84116106 317.8568711 0.02894329-0.03400901 317.7939188-93.07197689-93.07197689c-113.48144387 113.48144387-156.61585484 229.29862407-133.93287976 365.43409902C320.04999243 689.88658708 274.63556302 508.26142888 410.85786857 326.67461990000004"  horiz-adv-x="1024" />

    
    <glyph glyph-name="orderManage" unicode="&#58904;" d="M537.429 590.4739999999999c53.437 0 96.754 44.64 96.754 99.73 0 30.991-13.709 58.678-35.23 76.978 1.841-6.278 3.14-12.808 3.14-19.712 0-37.644-29.596-68.146-66.104-68.146-36.517 0-66.115 30.502-66.115 68.146 0 5.515 0.8 10.802 2.01 15.929-19.132-18.219-31.203-44.22-31.203-73.194C440.682 635.114 483.999 590.4739999999999 537.429 590.4739999999999zM534.349 717.6179999999999c35.607 0 64.472 29.749 64.472 66.46 0 36.699-28.865 66.448-64.472 66.448-35.608 0-64.474-29.749-64.474-66.448C469.875 747.367 498.74 717.6179999999999 534.349 717.6179999999999zM78.809 121.59400000000005l155.81-62.177c-12.567 25.91-62.832 417.07-62.832 417.07L78.809 121.59400000000005zM712.094-83.06399999999996l10.061 152.839-349.316-36.268L712.094-83.06399999999996zM817.639 758.851l-169.355-25.76c10.194-18.833 16.055-40.505 16.055-63.613 0-72.249-56.807-130.824-126.908-130.824-70.084 0-126.901 58.576-126.901 130.824 0 9.582 1.066 18.901 2.95 27.904l-209.025-31.788c7.536-202.06 98.011-603.591 98.011-603.591l650.886 113.984C908.113 222.62300000000005 817.639 758.851 817.639 758.851zM327.385 439.709l276.938 41.051 8.23-30.819-276.923-41.063L327.385 439.709zM386.848 206.04499999999996l-10.06 35.15 340.838 49.995 10.07-35.149L386.848 206.04499999999996zM366.201 307.26700000000005l-13.441 34.878 439.032 59.52 13.447-34.875L366.201 307.26700000000005z"  horiz-adv-x="1024" />

    
    <glyph glyph-name="mima" unicode="&#59058;" d="M757.621117 496.508423l-27.533077 0L730.08804 603.190141c0 128.253012-91.396593 228.690516-221.245963 228.690516-130.370233 0-219.212654-102.577237-219.212654-228.690516L289.629423 496.508423l-27.533077 0c-60.71992 0-110.107747-50.130747-110.107747-111.790062l0-335.327208c0-61.659315 49.387827-111.790062 110.107747-111.790062l495.52477 0c60.71992 0 110.109794 50.130747 110.109794 111.790062l0 335.327208C867.73091 446.377676 818.341037 496.508423 757.621117 496.508423L757.621117 496.508423zM344.674087 603.190141c0 95.241154 64.147996 172.794461 164.169013 172.794461 98.974176 0 166.178787-75.894528 166.178787-172.794461L675.021887 496.508423 344.674087 496.508423 344.674087 603.190141 344.674087 603.190141zM812.663734 49.39115300000003c0-30.829146-24.694425-55.895031-55.042617-55.895031L262.096347-6.503877999999986c-30.349215 0-55.06513 25.065885-55.06513 55.895031l0 335.327208c0 30.830169 24.715915 55.895031 55.06513 55.895031l495.52477 0c30.348192 0 55.042617-25.066909 55.042617-55.895031L812.663734 49.39115300000003 812.663734 49.39115300000003zM509.846964 328.866309c-30.392194 0-55.04364-25.065885-55.04364-55.93801 0-20.691251 11.08036-38.740326 27.533077-48.40443l0-91.335195c0-15.414061 12.314467-27.90249 27.510564-27.90249 15.217586 0 27.533077 12.488429 27.533077 27.90249l0 91.338265c16.455787 9.665127 27.5341 27.713178 27.5341 48.40136C564.915164 303.80144700000005 540.261671 328.866309 509.846964 328.866309L509.846964 328.866309z"  horiz-adv-x="1024" />

    
    <glyph glyph-name="bianji" unicode="&#59007;" d="M371.70570342 166.02266924000003C370.35064443 164.66759443 364.82071924 161.63687606999997 363.0056205 161.23505683999997L220.66660214 129.72489315999997 257.67533076 92.71617948999994 289.18549443 235.05519786000002C289.60886709 236.96766708999996 292.5511376 242.33332733999998 293.97309102 243.75528076L767.35484316 717.13703291C779.47456924 729.25674316 779.47456924 748.90669102 767.35484316 761.02641709 755.23511709 773.14612734 735.58516924 773.14612734 723.46545898 761.02641709L250.08370683 287.64466582C240.30183974 277.86279786 231.5619705 261.92441924 228.5837 248.4708624L197.07353633 106.13182733999997C192.16859785 83.97500682999998 211.92544443 64.21816025999999 234.08226583 69.12311366999995L376.42128418 100.63327733999995C389.77270683 103.58893974 405.87665557 112.41485215 415.59510342 122.13328418000003L888.97683974 595.51502051C901.09656582 607.63474658 901.09656582 627.28469443 888.97683974 639.40440557 876.8571295 651.5241307599999 857.20718076 651.5241307599999 845.08745557 639.40440557L371.70570342 166.02266924000003ZM426.4377295 770.1162L107.46531582 770.1162C82.35340684 770.1162 62 749.76071367 62 724.65088418L62-20.48510682999995C62-45.597015820000024 82.35548633-65.95042265999996 107.46531582-65.95042265999996L852.60130683-65.95042265999996C877.71321582-65.95042265999996 898.0666376-45.594936329999996 898.0666376-20.48510682999995L898.0666376 298.48730682999997 898.0666376 457.97351367C898.0666376 475.11337734 884.17201924 489.00799658 867.03215557 489.00799658 849.89227607 489.00799658 835.99767266 475.11337734 835.99767266 457.97351367L835.99767266 298.48730682999997 835.99767266-20.48510682999995C835.99767266-11.316620510000007 843.43206026-3.8814568400000553 852.60130683-3.8814568400000553L107.46531582-3.8814568400000553C116.63381709-3.8814568400000553 124.06896582-11.315860260000022 124.06896582-20.48510682999995L124.06896582 724.65088418C124.06896582 715.4823829100001 116.63457734 708.04723418 107.46531582 708.04723418L426.4377295 708.04723418 585.92393633 708.04723418C603.06381583 708.04723418 616.95841924 721.94185342 616.95841924 739.08171709 616.95841924 756.22159658 603.06381583 770.1162 585.92393633 770.1162L426.4377295 770.1162ZM948.70561924 655.24381582C966.43026582 672.9684624 966.42149785 701.5676534199999 948.73908974 719.2500623999999L897.96979443 770.01935683 847.20048418 820.78866709C829.59280684 838.39634443 800.86140898 838.42236709 783.1942376 820.75519658L723.46545898 761.02641709C711.34573291 748.90669102 711.34573291 729.25674316 723.46545898 717.13703291 735.58516924 705.01730683 755.23511709 705.01730683 767.35484316 717.13703291L827.08362266 776.8658124C820.49354317 770.27573291 809.92507607 770.28529102 803.3111 776.89928291L854.08041026 726.12997266 904.84970557 675.3606773399999C898.29869785 681.9116841800001 898.29542393 692.61237393 904.81623417 699.1332L845.08745557 639.40440557C832.9677295 627.28469443 832.9677295 607.63474658 845.08745557 595.51502051 857.20718076 583.39531026 876.8571295 583.39531026 888.97683974 595.51502051L948.70561924 655.24381582Z"  horiz-adv-x="1025" />

    
    <glyph glyph-name="huiyuan" unicode="&#58921;" d="M526.51612901 311.41935498L526.51612901 195.29032295000002 236.19354805 195.29032295000002C236.19354805 195.29032295000002 234.71290303 232.88709698000002 236.19354805 282.38709697 237.67419395 331.88709697 352.32258096 369.48387099 352.32258096 369.48387099 352.32258096 369.48387099 377.11612901 369.86129004 406.23548398 369.94838701000003 344.07741904 372.47419395 294.25806494 429.58064502 294.25806494 500.12903203 294.25806494 572.27419394 346.25483896 630.7741939499999 410.38709697 630.7741939499999 474.51935498 630.7741939499999 526.51612901 572.27419394 526.51612901 500.12903203 526.51612901 429.63870997 476.81290303 372.61935498 414.74193506 369.97741904 433.29354805 370.00645195000004 452.832258 369.89032295000004 468.45161299 369.48387099 511.59354805 368.38064502 526.51612901 311.41935498 526.51612901 311.41935498ZM942.57741904 253.35483896000005L881.14516104 253.35483896000005C895.632258 294.29032295 903.93548398 338.12903202999996 903.93548398 384 903.93548398 600.46451602 728.46451602 775.93548398 512 775.93548398 295.53548398 775.93548398 120.06451602 600.46451602 120.06451602 384 120.06451602 167.53548397999998 295.53548398-7.935483979999958 512-7.935483979999958 547.21612901-7.935483979999958 581.15483896-2.854838960000052 613.61290303 5.854838960000052L613.61290303-54.03870997000001C580.92258096-61.61612901000001 547.01290302-66 512-66 263.48387099-66 62 135.48387099 62 384 62 632.54516104 263.48387099 834 512 834 760.51612901 834 962 632.54516104 962 384 962 338.53548398 955.11935498 294.72580604999996 942.57741904 253.35483896000005ZM555.54838701 369.48387099L555.54838701 398.51612901 671.67741904 398.51612901 671.67741904 369.48387099 555.54838701 369.48387099ZM555.54838701 572.70967705L816.83870996 572.70967705 816.83870996 543.67741904 555.54838701 543.67741904 555.54838701 572.70967705ZM816.83870996 456.58064502L555.54838701 456.58064502 555.54838701 485.61290303 816.83870996 485.61290303 816.83870996 456.58064502ZM773.29032295 253.35483896000005C861.49032295 253.35483896000005 932.96774199 181.87741903999995 932.96774199 93.67741904000002 932.96774199 5.4774190399999725 861.49032295-66 773.29032295-66 685.09032295-66 613.61290303 5.4774190399999725 613.61290303 93.67741904000002 613.61290303 181.87741903999995 685.09032295 253.35483896000005 773.29032295 253.35483896000005ZM746.02903203-1.2000000000000455L766.55483896 19.354838960000052 762.02580606 23.854838960000052 877.02258096 126.22258095999996 857.71612901 147.90967705000003 741.47096797 44.40967705000003 684.42258096 101.45806493999999 663.89677402 80.93225800000005 746.02903203-1.2000000000000455Z"  horiz-adv-x="1024" />

    
    <glyph glyph-name="manager" unicode="&#58885;" d="M759.245 270.933c24.097 0 43.597 19.527 43.597 43.582 0 13.886-6.481 26.229-16.578 34.207l0.229 0.281c-33.55 25.956-70.818 47.244-111.094 62.656 51.26 43.98 83.846 109.107 83.846 181.926 0 132.396-107.349 239.743-239.729 239.743-132.396 0-239.744-107.347-239.744-239.743 0-72.818 32.612-137.945 83.859-181.926-163.562-62.755-279.935-220.896-280.02-406.611v-0.086c0.085-23.998 19.599-43.512 43.583-43.512 24.112 0 43.526 19.514 43.598 43.512 0 192.287 156.479 348.709 348.724 348.709 78.848 0 151.407-26.582 209.841-70.848 7.8-7.364 18.311-11.89 29.888-11.89z m-239.73 170.104c-84.116 0-152.563 68.434-152.563 152.549s68.447 152.577 152.563 152.577c84.129 0 152.591-68.462 152.591-152.577s-68.462-152.549-152.591-152.549zM918.307 107.79700000000003h-21.231l0.085 62.516c0 37.184-38.63 67.326-86.372 67.326-47.713 0-86.399-30.143-86.399-67.326l-0.427-62.516h-21.656c-11.949 0-21.146-9.621-21.146-18.945l-0.482-135.25c0-9.295 10.132-18.93 22.082-18.93h216.057c11.922 0 21.118 9.635 21.118 18.93l0.454 135.25c-0.001 9.323-10.162 18.945-22.083 18.945z m-64.772 0h-86.286v64.914c0 18.564 19.755 31.266 43.54 31.266 23.786 0 43.03-12.701 43.03-31.266l-0.284-64.914z"  horiz-adv-x="1024" />

    
    <glyph glyph-name="index" unicode="&#58883;" d="M904.46182187 312.80797653c0.00436587 15.07287573-12.20871253 27.29250453-27.27940587 27.29905387h-0.0087328c-15.06741867 0-27.28377173-12.21307947-27.2881376-27.27940587l-0.09059733-280.7305408c0-1.758448 0.16809493-3.5179872 0.50755946-5.2469632 0.38967467-1.99312533 1.32838613-14.2498656-3.8869216-20.5807136-4.58877333-5.57442133-14.86657707-6.74562773-22.6808096-6.74562773-48.55760427 0-151.48300373-0.0109152-200.56453973-0.01528107l-1.17338987 205.2155296c1.1384608 9.8193632 3.08574293 42.01718293-16.3532352 64.7754912-8.36108587 9.79207573-23.82909333 21.459392-50.02570666 21.45939094h-3.96878614c-0.0982368 0.00218347-0.19756587 0.00873173-0.29580373 0.0087328h-0.00873173c-0.00218347 0-10.57469973-0.00436587-32.99026774-0.00654934-22.415568 0.00218347-32.98699307 0.00654933-32.99026773 0.00654934h-0.00873173c-0.09932907 0-0.19647467-0.00654933-0.29580374-0.0087328h-3.96878613c-26.19661227 0-41.6646208-11.66731627-50.02679787-21.45939094-19.43897813-22.7583072-17.491696-54.95612693-16.3532352-64.7754912l-1.17338986-205.2155296c-49.0804448 0.00436587-152.00693547 0.01528107-200.56453974 0.01528107-7.7487392 0-17.95777813 1.15155947-22.583664 6.62774293-5.0101024 5.93134933-4.54292907 17.10857067-3.95459626 20.83503894 0.40168107 1.86323413 0.47808853 3.17415573 0.47808746 5.11270613l-0.08950506 280.72835733c-0.00436587 15.06850987-12.22072 27.27940587-27.2881376 27.27940587h-0.00873174c-15.07069333-0.00654933-27.28486293-12.22617707-27.27940586-27.2968704l0.08950506-278.60970667c-1.36768107-9.96235307-3.35316693-39.33312213 15.82275307-62.62409386 10.00274027-12.1475872 29.36640213-26.62885653 64.81369493-26.62885654 65.05382933 0 227.6933152-0.01964693 227.69331414-0.01964693h0.00327466c15.00847573 0 27.2019072 12.12139093 27.28813867 27.13205013l1.33930133 234.20208107c0.00873173 1.59035307-0.05566827 2.788848-0.32090773 4.344272-0.94853547 6.84932267-0.21175573 19.0656768 3.616224 23.4787136 1.32183787 1.5237696 4.18163413 2.2965696 8.4997088 2.2965696l37.26249813 0.00218347 37.26358934-0.00218347c4.31698347 0 7.177872-0.7717088 8.49970986-2.2965696 3.82797973-4.41303787 4.56366827-16.62829973 3.616224-23.4787136-0.26414933-1.5565152-0.33073173-2.75173547-0.3209088-4.344272l1.3403936-234.20208107c0.0851392-15.0106592 12.27966187-27.13423253 27.29032107-27.13205013 0 0 162.63948587 0.01964693 227.6933152 0.01964693 35.44838293 0 54.8109536 14.48236053 64.81369387 26.62885654 19.17592 23.29315413 17.1904352 52.6639232 15.82275413 62.62409386l0.08841387 278.6075232zM1020.93086933 372.2339008L629.05792533 793.349904c-5.796 6.71506453-45.05162453 49.626208-103.32380586 51.60405227-41.57729813 1.4288064-81.40488213-17.7263744-118.38904107-56.88266987-98.40102613-104.18501973-389.35697707-412.59882987-392.284448-415.70094507-10.3422048-10.96219093-9.8390112-28.2323072 1.12427093-38.574512 10.96109973-10.34657067 28.2323072-9.8390112 38.574512 1.12317974 2.92747093 3.1021152 293.87250773 311.50282773 392.2615264 415.6747488 25.6235616 27.12986667 51.34099413 40.5076032 76.44826454 39.82758293 36.34889173-1.01730133 62.88169387-31.12375893 64.1991648-32.64752747 0.38094293-0.46935573 0.60688853-0.71385813 1.03476693-1.17666453l392.2724416-421.5438816a27.22046293 27.22046293 0 0 1 19.98255787-8.69836693 27.19426667 27.19426667 0 0 1 18.58322133 7.3099456c11.03532267 10.27125547 11.65530987 27.5348224 1.38951253 38.56905493z"  horiz-adv-x="1024" />

    
    <glyph glyph-name="chanpinguanli" unicode="&#58899;" d="M801.49204-79.000566H221.451636C163.23103-79.000566 116.024889-31.795717 116.024889 26.423596V579.894303c0 58.221899 47.206141 105.42804 105.426747 105.42804h52.708849C274.160485 743.541657 354.053172 845.575758 511.472485 845.575758c169.80299 0 237.309414-102.034101 237.309414-160.253415h53.767758c58.219313 0 105.424162-47.204848 105.424161-105.42804v-553.469414c0-58.220606-48.262465-105.425455-106.481778-105.425455zM511.472485 792.86303c-145.229576 0-184.599273-71.149899-184.599273-107.541979h369.197253c0 36.392081-47.31604 107.54198-184.59798 107.541979z m343.787313-212.967434c0 29.111596-23.601131 52.71402-52.710141 52.71402h-53.770344v-158.136889h-52.712727V632.609616h-369.19596v-158.136889h-52.715313V632.609616H221.449051c-29.112889 0-52.71402-23.602424-52.714021-52.71402v-448.049131h686.524768V579.895596z m0-500.760566H168.736323v-52.708848c0-29.114182 23.602424-52.716606 52.715313-52.716606h581.098021c29.111596 0 52.712727 23.603717 52.712727 52.716606v52.708848h-0.002586z"  horiz-adv-x="1024" />

    
    <glyph glyph-name="xitongguanli" unicode="&#58909;" d="M553.85 831.91875a450.61875 450.61875 0 0 1-86.45625 0l-33.01875-73.125a382.5 382.5 0 0 1-106.3125-38.64375l-72.225 34.7625c-23.79375-16.3125-46.0125-34.9875-66.2625-55.575l21.7125-77.23125a382.33125 382.33125 0 0 1-56.53125-97.875L77.01875 504.375A450.16875 450.16875 0 0 1 62 419.2125l66.2625-45.225c0.95625-37.9125 7.59375-75.375 19.63125-111.375l-46.8-65.1375c11.98125-26.26875 26.4375-51.35625 43.25625-74.86875l79.81875 7.93125c25.0875-28.35 54.28125-52.875 86.625-72.675l5.9625-79.9875c26.1-12.43125 53.325-22.33125 81.28125-29.5875l56.025 57.375a382.5 382.5 0 0 1 113.0625 0l56.08125-57.375a450.1125 450.1125 0 0 1 81.28125 29.5875l6.01875 79.9875a382.66875 382.66875 0 0 1 86.625 72.675l79.7625-7.93125c16.81875 23.5125 31.275 48.6 43.25625 74.86875l-46.8 65.1375a382.66875 382.66875 0 0 1 19.6875 111.375l66.20625 45.225a450.16875 450.16875 0 0 1-15.01875 85.1625l-77.7375 19.8a382.33125 382.33125 0 0 1-56.53125 97.93125l21.7125 77.23125a450.1125 450.1125 0 0 1-66.2625 55.575l-72.28125-34.7625a382.5 382.5 0 0 1-106.25625 38.7L553.85 831.91875zM512 665.25c155.25 0 281.25-126 281.25-281.25s-126-281.25-281.25-281.25-281.25 126-281.25 281.25 126 281.25 281.25 281.25z m0-112.5c93.15 0 168.75-75.6 168.75-168.75s-75.6-168.75-168.75-168.75-168.75 75.6-168.75 168.75 75.6 168.75 168.75 168.75z"  horiz-adv-x="1024" />

    
    <glyph glyph-name="delivery" unicode="&#58887;" d="M674.06030176 437.5175877c-134.17085391 0-242.71356797-108.54271318-242.71356798-242.71356798s108.54271318-242.71356797 242.71356798-242.71356709c134.17085391 0 242.71356797 108.54271318 242.71356797 242.7135671s-108.54271318 242.71356797-242.71356798 242.71356797z m128.14070361-256.28140723l-105.52763847-107.03517539c-12.06030146-12.06030146-31.6582919-3.01507559-31.6582919 13.56783926v25.62814072c0 10.55276367-9.04522588 18.09045263-18.09045175 18.09045176H559.4874374c-10.55276367 0-18.09045263 9.04522588-18.09045263 18.09045263v88.94472364c0 10.55276367 9.04522588 18.09045263 18.09045263 18.09045264h85.92964805c10.55276367 0 18.09045263 9.04522588 18.09045263 18.09045175v25.62814072c0 16.58291484 19.59798955 25.62814073 31.65829102 13.56783927l105.52763848-107.03517628c9.04522588-6.03015117 9.04522588-18.09045263 1.50753779-25.62814072zM381.59799013 184.25125605999995c0 3.01507559-3.01507559 6.03015117-6.03015117 6.03015117h-90.45226143c-12.06030146 0-21.10552734 9.04522588-21.10552733 21.10552734s9.04522588 21.10552734 21.10552734 21.10552735H378.58291455c3.01507559 0 6.03015117 3.01507559 6.03015117 6.03015117 6.03015117 34.6733666 16.58291484 67.83919628 34.6733666 97.98994951 3.01507559 4.52261338 0 9.04522588-6.03015117 9.04522675h-128.14070361c-12.06030146 0-21.10552734 9.04522588-21.10552734 21.10552735 0 12.06030146 9.04522588 21.10552734 21.10552734 21.10552734H453.95979893c1.50753779 0 3.01507559 0 4.52261337 1.5075378 51.25628144 54.27135703 125.12562803 88.94472364 205.02512579 88.94472363 43.71859336 0 85.92964805-10.55276367 123.61809023-28.64321631 4.52261338-1.50753779 9.04522588 1.50753779 9.04522588 6.03015117V766.16080371c0 37.68844219-30.15075411 67.83919628-67.83919629 67.83919629H175.06532656C137.37688438 834 107.22613028 803.8492459 107.22613028 766.16080371v-764.32160743c0-37.68844219 30.15075411-67.83919628 67.83919628-67.83919628h352.76381894c6.03015117 0 9.04522588 9.04522588 3.01507559 12.06030146-85.92964805 45.22613028-144.72361846 135.6783917-149.24623096 238.19095459z m-96.48241259 512.56281445h343.71859306c12.06030146 0 21.10552734-9.04522588 21.10552823-21.10552822 0-12.06030146-9.04522588-21.10552734-21.10552823-21.10552735H285.11557754c-12.06030146 0-21.10552734 9.04522588-21.10552735 21.10552735 0 12.06030146 9.04522588 21.10552734 21.10552734 21.10552822z m0-155.27638213h343.71859306c12.06030146 0 21.10552734-9.04522588 21.10552823-21.10552734s-9.04522588-21.10552734-21.10552823-21.10552823H285.11557754c-12.06030146 0-21.10552734 9.04522588-21.10552735 21.10552823s9.04522588 21.10552734 21.10552734 21.10552734z"  horiz-adv-x="1024" />

    
    <glyph glyph-name="shanchu" unicode="&#58901;" d="M762.21781333 715.62353778H263.15093333c-45.94688 0-83.17838222-37.22808889-83.17838222-83.17496888v-27.72536889h665.42250667v27.72536889c0.00113778 45.94688-37.22808889 83.17496889-83.17724445 83.17496888m-145.28967111 55.4496l12.23793778-87.50648888H396.20266667l12.23793778 87.50648888h208.4864m6.66168888 55.4496H401.78119111c-22.87843555 0-44.16056889-18.51960889-47.35544889-41.20803555L338.20672 669.2977777799999c-3.16757333-22.66112 12.97066667-41.18072889 35.84910222-41.18072888h277.25937778c22.87843555 0 39.01781333 18.51847111 35.82179555 41.20689778l-16.21902222 116.01806222c-3.16984889 22.66112-24.45084445 41.18072889-47.32928 41.18072888m152.49180445-277.248H249.28711111c-30.48675555 0-53.20362667-24.85475555-50.44224-55.23228444l45.43488-499.47989333c2.73408-30.37866667 29.97361778-55.23228445 60.46151111-55.23228445h415.88849778c30.48675555 0 57.72629333 24.85475555 60.46151111 55.23228445l45.43374222 499.47989333c2.76024889 30.37752889-19.95662222 55.23228445-50.44451555 55.23228444M401.78119111 50.22947555999997h-83.17838222L290.87630222 438.37440001h110.90375111v-388.14606223z m166.35562667 0h-110.90375111V438.37440001h110.90375111v-388.14606223z m138.62912 0h-83.17838223V438.37440001h110.90375112l-27.72536889-388.14606223z"  horiz-adv-x="1024" />

    
    <glyph glyph-name="search" unicode="&#58881;" d="M222.6944 673.2032A323.1488 323.1488 0 0 1 133.6832 384c19.2512 87.3728 64.512 172.7488 135.0144 243.3024C339.2512 697.8815999999999 424.6272 743.1168 512 762.3679999999999c-101.632 19.1488-210.688-10.5216-289.3056-89.1648zM989.44 73.88160000000005l-121.7024 121.7024a118.016 118.016 0 0 1-92.8 34.1248c114.4576 165.5552 97.92 394.3936-49.4848 541.824-165.9392 165.9904-435.0464 165.9904-601.0368 0-165.9392-165.9904-165.9392-435.1232 0-601.1136 147.4048-147.4304 376.064-163.84 541.7216-49.3824-2.56-33.28 8.8576-67.5328 34.1248-92.8l121.7024-121.728c46.08-45.9776 121.3696-45.9776 167.3472 0 46.208 45.9776 46.208 121.2928 0.128 167.3728zM676.096 219.904c-138.6752-138.6752-363.392-138.6752-502.016 0-138.6752 138.6752-138.6752 363.4432 0 502.1184 138.624 138.6752 363.3408 138.6752 502.016 0 138.6496-138.5728 138.6496-363.4432 0-502.1184z"  horiz-adv-x="1024" />

    
    <glyph glyph-name="customer" unicode="&#58882;" d="M756.8 124.79999999999995c-41.28 78.24-117.12 119.04-202.56 153.12-12.96 5.28-18.24 20.16-12 32.16v0.48l1.44 2.88c37.92 52.8 71.04 119.52 75.84 204.96 9.12 97.92-27.84 167.04-79.2 218.88-7.2 7.2-9.12 18.24-4.32 27.36 24.48 45.12 62.4 80.64 131.52 84.96 105.6 4.8 163.2-62.4 172.8-148.8 14.4-96-19.2-172.8-57.6-220.8-4.8-9.6-14.4-14.4-19.2-24-3.84-7.68-4.8-25.44-1.92-36.96 0.96-4.8 3.36-8.64 7.2-12 13.44-11.52 40.8-19.68 57.6-28.32 24-9.6 43.2-19.2 62.4-28.8 38.4-19.2 81.6-48 96-86.4 9.6-24 4.8-72-9.6-91.2-31.2-44.64-120.96-51.84-194.88-60.48-9.6-0.48-18.72 4.32-23.52 12.96zM34.4 28.799999999999955v33.6c0 9.6 4.8 19.2 9.6 28.8 18.72 37.92 56.64 61.92 89.76 85.44 0.96 0.48 1.92 1.44 2.88 1.92 28.32 13.92 56.64 28.32 89.76 42.24 8.16 3.84 19.68 8.16 28.8 12 3.36 1.44 6.24 3.36 8.16 6.24 13.92 16.8 28.8 51.36 15.36 77.76-4.8 9.6-9.6 14.4-18.72 23.52l-0.96 0.96c-43.2 48-81.12 129.6-71.52 225.12 9.6 96 72 163.2 177.6 163.2 105.12 0 167.52-66.72 182.4-162.24 0-0.96 0-1.44 0.48-2.4 4.32-57.12-9.6-109.44-24-143.04-13.92-33.12-28.32-56.64-47.04-80.16-0.96-0.96-1.44-1.92-1.92-2.88-4.8-7.68-12.48-12.48-17.28-20.16-0.96-1.44-1.44-2.88-1.92-4.8-8.16-28.32 0.96-65.28 10.56-79.2 4.8-9.12 23.04-9.6 37.44-13.92 0.96-0.48 1.44-0.48 2.4-0.96 57.12-24 113.76-52.32 156.48-90.24 0.48-0.48 0.96-0.96 1.44-0.96 12.48-12.48 28.8-29.28 35.52-52.32 1.44-5.28 1.92-11.04 1.92-16.32v-37.44c0-2.4-0.48-4.8-0.96-6.72-16.32-49.92-82.08-64.32-143.04-78.24-105.6-19.2-254.4-19.2-364.8 0-52.8 9.6-110.4 24-139.2 57.6-9.6 4.8-14.4 14.4-19.2 33.6z"  horiz-adv-x="1024" />

    
    <glyph glyph-name="shuidian" unicode="&#59006;" d="M543.005 819.16500029a44.89499971 44.89499971 0 0 1-61.965 0.11999971C369.28999971 713.14500029 152.46500029 515.95500029 152.46500029 295.90500029c0-198.56999971 160.965-359.53499971 359.53499971-359.53500058s359.53499971 160.965 359.53499971 359.53500058c0 220.75499971-214.04999971 414.34499971-328.52999971 523.26z m91.71-491.31L498.65000029 137.37000029c-8.47500029-11.88-27.20999971-5.87999971-27.21000058 8.71499971v118.41000029a15.00000029 15.00000029 0 0 1-14.99999942 14.99999942h-54.96000029a15.00000029 15.00000029 0 0 0-12.21000029 23.715l136.06500058 190.485c8.47500029 11.88 27.20999971 5.87999971 27.20999971-8.71499971v-118.395a15.00000029 15.00000029 0 0 1 15.00000029-15.00000029h54.97499971c12.195-0.01500029 19.28999971-13.79999971 12.195-23.72999942z"  horiz-adv-x="1024" />

    
    <glyph glyph-name="collapse-right" unicode="&#58880;" d="M739.93586881 326.16401301999997l0-94.366228-660.62099699 1e-8 0 94.36622799L739.93586881 326.16401301999997 739.93586881 326.16401301999997zM739.9358688 514.90977102l0-94.372368-660.620997 0 0 94.372368L739.9358688 514.90977102 739.9358688 514.90977102zM739.93586881 703.65143602l0-94.375437-660.62099699-1e-8 0 94.37543702L739.93586881 703.65143602 739.93586881 703.65143602zM739.93586881 137.42234801999996l-1e-8-94.366228-660.620997 0 3e-8 94.36622802L739.93586881 137.42234801999996 739.93586881 137.42234801999996zM975.89152882 373.34354501999997l-141.57421501-188.76417801 0 377.525286L975.89152882 373.34354501999997 975.89152882 373.34354501999997z"  horiz-adv-x="1024" />

    
    <glyph glyph-name="gongdikaifang" unicode="&#58884;" d="M893.53443555 237.22666667H131.60334222c-31.36853333 0-56.88888889 25.52035555-56.88888889 56.88888888V619.52c0 31.36853333 25.52035555 56.88888889 56.88888889 56.88888889h761.93223111c31.36853333 0 56.88888889-25.52035555 56.88888889-56.88888889v-325.40444445c-0.00227555-31.36853333-25.52263111-56.88888889-56.89002667-56.88888888zM131.60334222 630.8977777800001c-6.16675555 0-11.37777778-5.21102222-11.37777777-11.37777778v-325.40444445c0-6.16789333 5.21102222-11.37777778 11.37777777-11.37777777h761.93109333c6.16789333 0 11.37777778 5.20988445 11.37777778 11.37777777l0.00113778 325.40444445c0 6.16675555-5.20988445 11.37777778-11.37777778 11.37777778H131.60334222zM243.86332445 652.1366755500001c-12.56789333 0-22.75555555 10.18766222-22.75555556 22.75555556V789.42776889c0 12.56789333 10.18766222 22.75555555 22.75555556 22.75555556s22.75555555-10.18766222 22.75555555-22.75555556v-114.53553778c0-12.56789333-10.18766222-22.75555555-22.75555555-22.75555556zM243.86332445-45.701119999999946c-12.56789333 0-22.75555555 10.18766222-22.75555556 22.75555555V238.36444444999995c0 12.56789333 10.18766222 22.75555555 22.75555556 22.75555555s22.75555555-10.18766222 22.75555555-22.75555555v-261.3100089c0-12.56789333-10.18766222-22.75555555-22.75555555-22.75555555zM780.89443555-44.56334221999998c-12.56789333 0-22.75555555 10.18766222-22.75555555 22.75555555V239.50222222000002c0 12.56789333 10.18766222 22.75555555 22.75555555 22.75555556s22.75555555-10.18766222 22.75555556-22.75555556v-261.31000889c0-12.56789333-10.18766222-22.75555555-22.75555556-22.75555555zM780.13667555 652.1366755500001c-12.56789333 0-22.75555555 10.18766222-22.75555555 22.75555556v113.39776c0 12.56789333 10.18766222 22.75555555 22.75555555 22.75555556s22.75555555-10.18766222 22.75555556-22.75555556v-113.39776c0-12.56789333-10.18766222-22.75555555-22.75555556-22.75555556zM264.46506667 261.71392000000003l-44.17877334 10.94087111 92.14862222 372.07836444 44.17763556-10.94200888zM413.51623111 261.71960889l-44.17877333 10.94200889 92.14748444 372.07608889 44.17877333-10.94087112zM711.61742222 261.73098667l-44.17991111 10.94087111 92.14862222 372.07722667 44.17763556-10.94087112zM562.56625778 261.72529778l-44.17991111 10.94087111 92.14862222 372.07722666 44.17763556-10.9408711z"  horiz-adv-x="1024" />

    
    <glyph glyph-name="tupian" unicode="&#58960;" d="M821.47555555 839.11111111H202.52444445C102.4 839.11111111 20.48 757.1911111100001 20.48 657.06666667v-546.13333334c0-100.12444445 81.92-182.04444445 182.04444445-182.04444444h618.9511111c100.12444445 0 182.04444445 81.92 182.04444445 182.04444444V657.06666667c0 100.12444445-81.92 182.04444445-182.04444445 182.04444444z m109.22666667-728.17777778c0-60.07466667-49.152-109.22666667-109.22666667-109.22666666H202.52444445c-60.07466667 0-109.22666667 49.152-109.22666667 109.22666666V657.06666667c0 60.07466667 49.152 109.22666667 109.22666667 109.22666666h618.9511111c60.07466667 0 109.22666667-49.152 109.22666667-109.22666666v-546.13333334zM329.95555555 420.40888889c60.07466667 0 109.22666667 49.152 109.22666667 109.22666666s-49.152 109.22666667-109.22666667 109.22666667-109.22666667-49.152-109.22666666-109.22666667 49.152-109.22666667 109.22666666-109.22666666z m0 145.63555556c20.02488889 0 36.40888889-16.384 36.4088889-36.4088889s-16.384-36.40888889-36.4088889-36.40888888-36.40888889 16.384-36.40888888 36.40888888 16.384 36.40888889 36.40888888 36.4088889zM856.064 134.59911110999997l-3.64088889 3.64088889-202.06933333 202.06933333c-29.12711111 29.12711111-74.63822222 29.12711111-103.76533333 0l-91.02222223-91.02222222-41.87022222 41.87022222c-29.12711111 29.12711111-74.63822222 29.12711111-103.76533333 0l-152.91733334-152.91733333c-5.46133333-7.28177778-9.10222222-16.384-9.10222222-27.30666667 0-20.02488889 16.384-36.40888889 36.40888889-36.40888888 10.92266667 0 18.20444445 3.64088889 25.48622222 10.92266666l152.91733333 152.91733334 152.91733334-152.91733334c7.28177778-7.28177778 16.384-10.92266667 27.30666666-10.92266666 20.02488889 0 36.40888889 16.384 36.4088889 36.40888888 0 10.92266667-5.46133333 20.02488889-10.92266667 27.30666667l-60.07466667 60.07466667 91.02222222 91.02222222 205.71022222-205.71022222c7.28177778-5.46133333 14.56355555-9.10222222 23.66577778-9.10222222 20.02488889 0 36.40888889 16.384 36.40888889 36.40888888 0 9.10222222-3.64088889 18.20444445-9.10222222 23.66577778z"  horiz-adv-x="1024" />

    


  </font>
</defs>
</svg>
